<svg width="197" height="197" xmlns="http://www.w3.org/2000/svg" xmlns:xlink="http://www.w3.org/1999/xlink" overflow="hidden"><defs><clipPath id="clip0"><path d="M766 246 963 246 963 443 766 443Z" fill-rule="evenodd" clip-rule="evenodd"/></clipPath></defs><g clip-path="url(#clip0)" transform="translate(-766 -246)"><path d="M821.019 393.906 827.015 398.853C834.053 403.608 842.056 407.044 850.668 408.806L859.955 409.742 857.764 411.103C853.628 414.912 851.07 420.174 851.07 425.986 851.07 431.798 853.628 437.06 857.764 440.869L859.584 442 853.957 441.716C837.447 440.039 822.146 434.274 809.083 425.448L798.647 416.838 799.578 411.362C800.743 407.428 802.838 403.838 805.765 400.91 808.693 397.982 812.284 395.888 816.217 394.722ZM908.25 392.859 907.841 395.859C907.61 401.476 909.522 407.005 913.632 411.115 917.742 415.225 923.271 417.137 928.888 416.906L929.346 416.844 918.917 425.448C905.854 434.274 890.552 440.039 874.043 441.716L868.522 441.995 865.512 437.752C863.555 434.147 862.496 430.127 862.496 425.986 862.496 421.846 863.555 417.826 865.512 414.22L868.738 409.673 877.332 408.806C885.944 407.044 893.947 403.608 900.985 398.853ZM929.742 348.045 931.103 350.236C934.912 354.372 940.174 356.929 945.986 356.929 951.798 356.929 957.06 354.372 960.869 350.236L962 348.415 961.716 354.043C960.039 370.553 954.274 385.854 945.448 398.917L936.357 409.936 932.163 409.223C928.23 408.058 924.639 405.964 921.711 403.036 917.319 398.644 914.804 392.761 914.484 386.466L914.497 386.264 918.853 380.985C923.608 373.947 927.044 365.944 928.806 357.332ZM782.014 342.497C786.154 342.497 790.174 343.555 793.78 345.512L798.328 348.738 799.194 357.332C800.956 365.944 804.392 373.947 809.147 380.985L814.295 387.224 812.943 387.039C807.325 386.809 801.796 388.721 797.686 392.831 793.576 396.94 791.664 402.47 791.895 408.087L792.247 410.668 782.552 398.917C773.726 385.854 767.961 370.553 766.284 354.043L766.005 348.522 770.248 345.512C773.853 343.555 777.873 342.497 782.014 342.497ZM937.673 279.66 945.448 289.083C954.274 302.146 960.039 317.447 961.716 333.957L961.995 339.478 957.752 342.488C954.146 344.445 950.126 345.503 945.986 345.503 941.845 345.503 937.825 344.445 934.22 342.488L929.672 339.262 928.806 330.668C927.044 322.056 923.608 314.053 918.853 307.015L913.502 300.53 916.66 300.961C922.277 301.191 927.807 299.279 931.917 295.169 936.026 291.06 937.939 285.53 937.708 279.913ZM791.841 277.825 797.439 278.776C801.373 279.942 804.964 282.036 807.891 284.964 810.819 287.892 812.913 291.482 814.079 295.416L814.871 300.077 809.147 307.015C804.392 314.053 800.956 322.056 799.194 330.668L798.258 339.955 796.897 337.764C793.088 333.628 787.826 331.071 782.014 331.071 776.202 331.071 770.94 333.628 767.131 337.764L766 339.584 766.284 333.957C767.961 317.447 773.726 302.146 782.552 289.083ZM859.478 246.005 862.488 250.248C864.445 253.854 865.503 257.873 865.503 262.014 865.503 266.155 864.445 270.174 862.488 273.78L859.262 278.328 850.668 279.194C842.056 280.956 834.053 284.392 827.015 289.147L821.556 293.651 821.762 292.141C821.993 286.524 820.081 280.994 815.971 276.885 811.861 272.775 806.332 270.863 800.714 271.094L798.337 271.418 809.083 262.552C822.146 253.726 837.447 247.961 853.957 246.284ZM868.415 246 874.043 246.284C890.552 247.961 905.854 253.726 918.917 262.552L930.758 272.322 930.025 276.638C928.859 280.572 926.765 284.162 923.837 287.09 919.445 291.482 913.562 293.998 907.267 294.318L907.25 294.317 900.985 289.147C893.947 284.392 885.944 280.956 877.332 279.194L868.045 278.258 870.236 276.897C874.371 273.088 876.929 267.826 876.929 262.014 876.929 256.202 874.371 250.94 870.236 247.131Z" fill="#7F7F7F" fill-rule="evenodd" fill-opacity="0.6"/></g></svg>